<?xml version="1.0" standalone="no"?>
<!DOCTYPE svg PUBLIC "-//W3C//DTD SVG 20010904//EN"
 "http://www.w3.org/TR/2001/REC-SVG-20010904/DTD/svg10.dtd">
<svg version="1.0" xmlns="http://www.w3.org/2000/svg"
 width="512.000000pt" height="512.000000pt" viewBox="0 0 512.000000 512.000000"
 preserveAspectRatio="xMidYMid meet">

<g transform="translate(0.000000,512.000000) scale(0.100000,-0.100000)"
fill="#676767" stroke="none">
<path d="M2421 5105 c-81 -18 -182 -65 -239 -112 -52 -43 -127 -141 -153 -200
l-18 -42 -210 -3 c-277 -4 -265 4 -269 -171 l-3 -125 -282 -4 c-303 -5 -318
-7 -437 -68 -64 -33 -162 -135 -199 -208 -65 -129 -61 1 -61 -1967 0 -1581 2
-1798 15 -1850 43 -167 193 -300 380 -340 105 -22 3125 -22 3230 0 187 40 337
173 380 340 13 52 15 269 15 1850 0 1968 4 1838 -61 1967 -37 73 -135 175
-199 208 -119 61 -134 63 -437 68 l-283 4 0 115 c0 63 -5 123 -11 135 -22 40
-66 48 -278 48 l-200 0 -43 81 c-54 102 -131 177 -230 224 -130 62 -271 79
-407 50z m273 -247 c97 -49 147 -110 186 -223 40 -115 62 -125 295 -125 l175
0 0 -245 0 -245 -790 0 -790 0 0 245 0 245 173 0 c231 0 231 0 293 155 78 193
286 281 458 193z m-1164 -818 c0 -191 6 -214 62 -243 31 -17 94 -18 981 -15
l949 3 34 37 34 38 0 176 0 176 263 -4 c241 -3 266 -5 308 -24 66 -31 113 -77
140 -136 l24 -53 3 -1774 c1 -1239 -1 -1785 -9 -1813 -15 -56 -82 -121 -150
-144 -52 -18 -112 -19 -1609 -19 -1497 0 -1557 1 -1609 19 -68 23 -135 88
-150 144 -8 28 -10 574 -9 1813 l3 1774 23 50 c28 60 54 89 108 121 62 37 106
42 367 43 l237 1 0 -170z"/>
<path d="M1199 3435 c-59 -32 -59 -30 -59 -437 0 -409 -1 -401 60 -433 43 -22
797 -22 840 0 59 30 60 39 60 436 0 346 -1 363 -20 394 -11 18 -35 38 -52 44
-20 7 -164 11 -417 11 -314 -1 -391 -3 -412 -15z m661 -435 l0 -210 -240 0
-240 0 0 210 0 210 240 0 240 0 0 -210z"/>
<path d="M2403 3103 c-12 -2 -36 -20 -53 -39 -24 -28 -30 -44 -30 -80 0 -39 5
-51 34 -80 l34 -34 749 0 c822 0 775 -3 808 60 22 42 19 93 -7 125 -44 56 -26
55 -800 54 -392 -1 -723 -4 -735 -6z"/>
<path d="M1940 2413 c-14 -9 -112 -100 -218 -202 l-194 -185 -90 97 c-106 114
-142 132 -207 102 -59 -26 -84 -88 -61 -150 12 -32 252 -288 296 -315 39 -25
80 -25 121 -2 40 22 506 466 524 498 18 34 15 86 -6 118 -35 54 -116 73 -165
39z"/>
<path d="M2378 2114 c-80 -43 -75 -176 7 -210 53 -22 1463 -21 1509 1 84 40
88 168 6 210 -43 22 -1481 22 -1522 -1z"/>
<path d="M1958 1447 c-15 -6 -98 -80 -185 -163 -87 -82 -177 -167 -201 -189
l-43 -38 -103 101 c-95 94 -106 102 -142 102 -53 0 -99 -30 -114 -75 -23 -70
-11 -92 142 -250 78 -80 154 -153 170 -161 46 -24 90 -9 160 54 35 30 154 142
265 249 225 216 238 236 206 300 -32 65 -100 96 -155 70z"/>
<path d="M2394 1146 c-47 -21 -74 -61 -74 -113 0 -38 5 -50 34 -79 l34 -34
749 0 c825 0 775 -4 809 62 20 38 14 101 -13 130 -43 48 -36 48 -795 48 -574
-1 -719 -3 -744 -14z"/>
</g>
</svg>
